<svg width="1080" height="1080" viewBox="0 0 1080 1080" fill="none" xmlns="http://www.w3.org/2000/svg">
<rect width="1080" height="1080" fill="white"/>
<path d="M57.6591 547L81.8068 256.091H207.943C230.102 256.091 248.473 259.074 263.057 265.04C277.735 271.006 288.483 279.434 295.301 290.324C302.119 301.214 304.913 314.045 303.682 328.818C302.735 339.424 299.515 349.131 294.023 357.938C288.625 366.744 281.475 374.131 272.574 380.097C263.672 386.062 253.492 390.182 242.034 392.455L241.75 395.295C254.25 395.674 265.377 398.799 275.131 404.67C284.884 410.447 292.366 418.449 297.574 428.676C302.782 438.903 304.818 450.883 303.682 464.614C302.356 480.523 297.053 494.68 287.773 507.085C278.492 519.491 265.898 529.244 249.989 536.347C234.174 543.449 215.708 547 194.591 547H57.6591ZM142.034 483.932H178.966C192.129 483.932 202.261 481.422 209.364 476.403C216.466 471.384 220.348 464.045 221.011 454.386C221.58 447.568 220.491 441.792 217.744 437.057C215.093 432.322 210.973 428.723 205.386 426.261C199.894 423.799 193.076 422.568 184.932 422.568H146.864L142.034 483.932ZM151.125 373.705H183.511C190.424 373.705 196.627 372.616 202.119 370.438C207.612 368.259 212.015 365.087 215.33 360.92C218.644 356.754 220.538 351.735 221.011 345.864C221.769 336.773 219.07 329.86 212.915 325.125C206.854 320.39 198.947 318.023 189.193 318.023H155.67L151.125 373.705ZM593.774 451.545L604.001 328.818H682.411L664.229 547H589.797L593.206 505.523H590.933C585.251 519.443 576.113 530.333 563.518 538.193C550.924 545.958 536.482 549.841 520.195 549.841C504.948 549.841 491.928 546.337 481.132 539.33C470.337 532.322 462.287 522.663 456.984 510.352C451.681 498.042 449.645 483.932 450.876 468.023L462.524 328.818H540.933L530.706 451.545C529.948 462.341 532.032 470.816 536.956 476.972C541.88 483.127 549.267 486.205 559.115 486.205C565.649 486.205 571.426 484.831 576.445 482.085C581.464 479.244 585.488 475.267 588.518 470.153C591.549 464.945 593.301 458.742 593.774 451.545ZM808.369 550.977C785.074 550.977 765.377 546.527 749.278 537.625C733.275 528.629 721.438 515.75 713.767 498.989C706.097 482.133 703.256 461.962 705.244 438.477C707.138 415.939 713.341 396.242 723.852 379.386C734.364 362.53 748.284 349.415 765.614 340.04C782.943 330.665 802.877 325.977 825.415 325.977C841.892 325.977 856.57 328.534 869.449 333.648C882.422 338.761 893.218 346.195 901.835 355.949C910.547 365.608 916.845 377.35 920.727 391.176C924.705 405.002 925.983 420.58 924.562 437.909L923.142 456.091H728.256L731.665 412.909H854.392C854.866 406.659 853.777 401.167 851.125 396.432C848.568 391.602 844.828 387.862 839.903 385.21C835.074 382.464 829.392 381.091 822.858 381.091C816.513 381.091 810.595 382.464 805.102 385.21C799.61 387.862 795.064 391.602 791.466 396.432C787.962 401.261 785.831 406.943 785.074 413.477L780.812 459.5C780.244 466.508 781.191 472.758 783.653 478.25C786.116 483.742 789.951 488.051 795.159 491.176C800.367 494.301 806.854 495.864 814.619 495.864C820.017 495.864 825.036 495.106 829.676 493.591C834.316 492.076 838.341 489.898 841.75 487.057C845.254 484.121 847.953 480.617 849.847 476.545H921.438C917.65 491.697 910.689 504.86 900.557 516.034C890.519 527.114 877.688 535.731 862.062 541.886C846.532 547.947 828.634 550.977 808.369 550.977Z" fill="black"/>
<path d="M428.54 256.091L404.392 547H325.983L350.131 256.091H428.54Z" fill="#008DDA"/>
<path d="M302.659 823L326.807 532.091H405.784L387.034 759.364H504.648L499.25 823H302.659Z" fill="#008DDA"/>
<path d="M637.141 826.977C613.466 826.977 593.58 822.29 577.482 812.915C561.478 803.445 549.688 790.282 542.112 773.426C534.536 756.475 531.648 736.826 533.447 714.477C535.341 692.129 541.449 672.527 551.771 655.67C562.188 638.72 576.203 625.557 593.817 616.182C611.525 606.712 632.216 601.977 655.891 601.977C679.565 601.977 699.404 606.712 715.408 616.182C731.506 625.557 743.343 638.72 750.919 655.67C758.589 672.527 761.478 692.129 759.584 714.477C757.785 736.826 751.677 756.475 741.26 773.426C730.843 790.282 716.781 803.445 699.072 812.915C681.459 822.29 660.815 826.977 637.141 826.977ZM642.254 769.023C648.978 769.023 654.944 766.797 660.152 762.347C665.455 757.896 669.764 751.551 673.078 743.312C676.393 735.074 678.523 725.273 679.47 713.909C680.417 702.451 679.896 692.65 677.908 684.506C675.919 676.267 672.652 669.922 668.107 665.472C663.656 661.021 658.069 658.795 651.345 658.795C644.432 658.795 638.277 661.021 632.879 665.472C627.576 669.922 623.268 676.267 619.953 684.506C616.639 692.65 614.508 702.451 613.561 713.909C612.614 725.273 613.135 735.074 615.124 743.312C617.112 751.551 620.379 757.896 624.925 762.347C629.565 766.797 635.341 769.023 642.254 769.023ZM880.607 909.364C858.732 909.364 840.266 906.239 825.209 899.989C810.152 893.833 798.741 885.311 790.976 874.42C783.305 863.625 779.47 851.22 779.47 837.205H855.038C855.512 841.845 857.122 845.585 859.868 848.426C862.709 851.267 866.449 853.303 871.089 854.534C875.824 855.86 881.175 856.523 887.141 856.523C897.368 856.523 905.985 854.013 912.993 848.994C920.095 844.07 924.072 835.216 924.925 822.432L928.05 785.5H925.777C922.368 792.886 917.491 799.184 911.146 804.392C904.896 809.506 897.51 813.436 888.987 816.182C880.559 818.833 871.421 820.159 861.572 820.159C846.042 820.159 832.074 816.561 819.669 809.364C807.264 802.167 797.794 790.756 791.26 775.131C784.726 759.506 782.5 739.098 784.584 713.909C786.762 687.583 792.633 666.182 802.197 649.705C811.857 633.227 823.504 621.153 837.141 613.483C850.777 605.812 864.792 601.977 879.186 601.977C889.982 601.977 899.262 603.871 907.027 607.659C914.887 611.352 921.279 616.324 926.203 622.574C931.222 628.729 934.868 635.5 937.141 642.886H938.845L941.97 604.818H1020.38L1002.2 822.432C1000.78 840.898 994.764 856.57 984.158 869.449C973.646 882.422 959.489 892.318 941.686 899.136C923.978 905.955 903.618 909.364 880.607 909.364ZM895.095 764.477C902.292 764.477 908.637 762.489 914.129 758.511C919.716 754.439 924.214 748.663 927.624 741.182C931.033 733.606 933.163 724.515 934.016 713.909C934.868 703.114 934.205 693.881 932.027 686.21C929.944 678.445 926.487 672.527 921.658 668.455C916.828 664.288 910.815 662.205 903.618 662.205C896.421 662.205 890.124 664.288 884.726 668.455C879.328 672.527 874.925 678.445 871.516 686.21C868.201 693.881 866.118 703.114 865.266 713.909C864.413 724.705 865.029 733.89 867.112 741.466C869.196 748.947 872.557 754.676 877.197 758.653C881.932 762.536 887.898 764.477 895.095 764.477Z" fill="black"/>
</svg>
